<?xml version="1.0" encoding="iso-8859-1"?>
<!-- Generator: Adobe Illustrator 16.0.0, SVG Export Plug-In . SVG Version: 6.00 Build 0)  -->
<!DOCTYPE svg PUBLIC "-//W3C//DTD SVG 1.1//EN" "http://www.w3.org/Graphics/SVG/1.1/DTD/svg11.dtd">
<svg version="1.1" id="Layer_1" xmlns="http://www.w3.org/2000/svg" xmlns:xlink="http://www.w3.org/1999/xlink" x="0px" y="0px"
	 width="23.125px" height="32px" viewBox="0 0 23.125 32" style="enable-background:new 0 0 23.125 32;" xml:space="preserve">
<g>
	<path d="M11.803,5.902C11.803,2.647,9.156,0,5.901,0C2.647,0,0,2.647,0,5.901c0,2.942,2.164,5.388,4.983,5.83v6.108
		c-0.772,0.35-1.312,1.126-1.312,2.03v9.901C3.672,31.001,4.67,32,5.901,32c1.231,0,2.229-0.999,2.229-2.229v-9.902
		c0-0.903-0.538-1.68-1.311-2.03v-6.107C9.639,11.289,11.803,8.843,11.803,5.902z M2.099,5.901c0-2.097,1.706-3.803,3.803-3.803
		c2.097,0,3.804,1.706,3.804,3.803S7.999,9.705,5.901,9.705C3.805,9.705,2.099,7.999,2.099,5.901z"/>
	<path d="M4.313,7.887c-0.15-0.226-0.317-0.489-0.456-0.772C3.788,6.974,3.726,6.828,3.678,6.68
		C3.632,6.536,3.595,6.375,3.584,6.247C3.58,6.222,3.578,6.167,3.576,6.122L3.574,6.087c0,0.018,0-0.012,0-0.016L3.577,6.01
		C3.579,5.93,3.578,5.85,3.588,5.769c0.011-0.161,0.035-0.322,0.066-0.477c0.059-0.313,0.145-0.61,0.228-0.869
		c0.082-0.259,0.164-0.478,0.222-0.634c0.06-0.158,0.094-0.249,0.094-0.249S4.109,3.588,3.976,3.696
		C3.841,3.804,3.662,3.972,3.478,4.205C3.296,4.438,3.112,4.739,2.98,5.099C2.945,5.188,2.916,5.281,2.892,5.378
		C2.863,5.473,2.843,5.572,2.829,5.674C2.81,5.775,2.8,5.879,2.797,5.984L2.792,6.063c0,0.02-0.002,0.012-0.001,0.053L2.792,6.15
		c0.002,0.048,0,0.087,0.008,0.155C2.826,6.548,2.883,6.75,2.966,6.95c0.082,0.196,0.185,0.372,0.299,0.528
		c0.226,0.313,0.487,0.549,0.724,0.724C4.228,8.375,4.444,8.49,4.601,8.56c0.156,0.07,0.252,0.096,0.252,0.096
		S4.796,8.577,4.698,8.44C4.601,8.304,4.464,8.114,4.313,7.887z"/>
</g>
<path d="M16.832,17.252v-8.74l6.292-7.943l-0.18-0.148l-7.949,7.927v0.165v8.74c-0.772,0.35-1.311,1.126-1.311,2.03v9.901
	c0,1.231,0.998,2.229,2.229,2.229c1.231,0,2.229-0.999,2.229-2.229v-9.902C18.143,18.379,17.605,17.603,16.832,17.252z"/>
<g>
</g>
<g>
</g>
<g>
</g>
<g>
</g>
<g>
</g>
<g>
</g>
<g>
</g>
<g>
</g>
<g>
</g>
<g>
</g>
<g>
</g>
<g>
</g>
<g>
</g>
<g>
</g>
<g>
</g>
</svg>
