<?xml version="1.0" encoding="iso-8859-1"?>
<!-- Generator: Adobe Illustrator 16.0.0, SVG Export Plug-In . SVG Version: 6.00 Build 0)  -->
<!DOCTYPE svg PUBLIC "-//W3C//DTD SVG 1.1//EN" "http://www.w3.org/Graphics/SVG/1.1/DTD/svg11.dtd">
<svg version="1.1" id="Layer_1" xmlns="http://www.w3.org/2000/svg" xmlns:xlink="http://www.w3.org/1999/xlink" x="0px" y="0px"
	 width="25.322px" height="32px" viewBox="0 0 25.322 32" style="enable-background:new 0 0 25.322 32;" xml:space="preserve">
<g>
	<path d="M18.446,8.088V3.069h3.453V0h-6.522v6.979c-0.003,0-0.007-0.002-0.01-0.002v3.166c3.975,1.171,6.886,4.848,6.886,9.196
		c0,5.289-4.303,9.592-9.592,9.592s-9.592-4.303-9.592-9.592c0-4.346,2.908-8.02,6.878-9.194V6.979c0,0-0.001,0-0.002,0V0.096H3.423
		v3.069h3.453v4.923C2.797,10.192,0,14.442,0,19.339C0,26.32,5.68,32,12.661,32s12.661-5.68,12.661-12.661
		C25.322,14.442,22.525,10.192,18.446,8.088z"/>
	<path d="M12.721,28.307c4.896,0,8.864-3.968,8.864-8.864c-3.339,0-13.978,0-17.728,0C3.857,24.338,7.825,28.307,12.721,28.307z"/>
</g>
<g>
</g>
<g>
</g>
<g>
</g>
<g>
</g>
<g>
</g>
<g>
</g>
<g>
</g>
<g>
</g>
<g>
</g>
<g>
</g>
<g>
</g>
<g>
</g>
<g>
</g>
<g>
</g>
<g>
</g>
</svg>
