<?xml version="1.0" encoding="iso-8859-1"?>
<!-- Generator: Adobe Illustrator 16.0.0, SVG Export Plug-In . SVG Version: 6.00 Build 0)  -->
<!DOCTYPE svg PUBLIC "-//W3C//DTD SVG 1.1//EN" "http://www.w3.org/Graphics/SVG/1.1/DTD/svg11.dtd">
<svg version="1.1" id="Layer_1" xmlns="http://www.w3.org/2000/svg" xmlns:xlink="http://www.w3.org/1999/xlink" x="0px" y="0px"
	 width="23.622px" height="32px" viewBox="0 0 23.622 32" style="enable-background:new 0 0 23.622 32;" xml:space="preserve">
<path d="M21.008,2.416c-3.102-3.62-8.386-0.796-9.136-0.368C9.465,0.404,6.1-1.045,3.391,1.019C1.445,2.502,0.324,4.416,0.059,6.706
	c-0.357,3.089,0.976,6.092,1.899,7.464h0.033c0,0.438-0.012,0.959-0.012,0.959H3.51h6.959v2.118H4.807
	c0.13,0.608,0.284,1.288,0.462,2.014h5.2v2.118H5.831c0.202,0.71,0.425,1.437,0.668,2.161h3.97v2.118H7.277
	c0.313,0.771,0.653,1.515,1.018,2.206h2.174v2.118H8.772C9.754,31.214,10.875,32,12.142,32c0.01,0,0.02-0.002,0.03-0.002
	S12.191,32,12.202,32c1.268,0,2.388-0.786,3.37-2.019h-1.697v-2.118h2.174c0.365-0.691,0.705-1.435,1.018-2.206h-3.192V23.54h3.97
	c0.243-0.725,0.466-1.451,0.668-2.161h-4.639v-2.118h5.201c0.178-0.727,0.332-1.406,0.462-2.014h-5.663v-2.118h6.959h1.121
	c0,0,0.014-0.549,0.014-0.959h0.026c0.841-1.222,1.39-2.625,1.565-4.1C23.782,8.196,23.521,5.348,21.008,2.416z M21.814,9.862
	c-0.125,1.049-0.488,2.053-1.04,2.953H3.185c-0.696-1.204-1.652-3.554-1.38-5.907c0.208-1.798,1.1-3.309,2.652-4.491
	c3.425-2.611,9.195,3.398,9.253,3.459c0.335,0.353,0.892,0.367,1.242,0.034c0.352-0.333,0.367-0.889,0.035-1.242
	c-0.079-0.083-0.66-0.69-1.558-1.44c1.406-0.645,4.493-1.713,6.246,0.332C21.335,5.497,22.074,7.676,21.814,9.862z"/>
<g>
</g>
<g>
</g>
<g>
</g>
<g>
</g>
<g>
</g>
<g>
</g>
<g>
</g>
<g>
</g>
<g>
</g>
<g>
</g>
<g>
</g>
<g>
</g>
<g>
</g>
<g>
</g>
<g>
</g>
</svg>
