<?xml version="1.0" encoding="iso-8859-1"?>
<!-- Generator: Adobe Illustrator 16.0.0, SVG Export Plug-In . SVG Version: 6.00 Build 0)  -->
<!DOCTYPE svg PUBLIC "-//W3C//DTD SVG 1.1//EN" "http://www.w3.org/Graphics/SVG/1.1/DTD/svg11.dtd">
<svg version="1.1" id="Layer_1" xmlns="http://www.w3.org/2000/svg" xmlns:xlink="http://www.w3.org/1999/xlink" x="0px" y="0px"
	 width="31.999px" height="30.599px" viewBox="0 0 31.999 30.599" style="enable-background:new 0 0 31.999 30.599;"
	 xml:space="preserve">
<g>
	<path d="M5.985,17.8c0,3.427,2.787,6.215,6.214,6.215c3.426,0,6.214-2.788,6.214-6.215c0-3.426-2.788-6.214-6.214-6.214
		C8.772,11.586,5.985,14.375,5.985,17.8z M17.04,17.8c0,2.67-2.172,4.842-4.841,4.842c-2.67,0-4.842-2.172-4.842-4.842
		c0-2.669,2.172-4.841,4.842-4.841C14.868,12.959,17.04,15.131,17.04,17.8z"/>
	<circle cx="12.199" cy="17.8" r="1.868"/>
	<path d="M8.272,17.8c0,2.166,1.761,3.927,3.927,3.927c2.165,0,3.927-1.761,3.927-3.927c0-2.165-1.762-3.927-3.927-3.927
		C10.033,13.874,8.272,15.635,8.272,17.8z M14.981,17.8c0,1.535-1.248,2.783-2.782,2.783c-1.535,0-2.783-1.248-2.783-2.783
		c0-1.534,1.248-2.782,2.783-2.782C13.733,15.018,14.981,16.266,14.981,17.8z"/>
	<path d="M31.89,23.446l-1.183,0.296c0.263,1.051-0.207,3.555-1.394,4.86c-0.556,0.611-1.16,0.858-1.852,0.754
		c-1.574-0.236-2.356-0.987-2.735-1.576c-0.448-0.698-0.577-1.552-0.352-2.342c0.171-0.6,0.727-1.574,1.37-2.704
		c1.226-2.15,2.751-4.826,2.959-7.208c0.18-2.078-0.868-4.604-2.671-6.436c-1.74-1.769-3.931-2.654-6.139-2.498
		c-4.515,0.319-7.619,2.849-8.284,3.435c-2.339,0.05-4.656,0.097-6.531,0.126c4.818-1.907,15.853-6.275,16.465-6.518
		c0.078-0.031,0.14-0.093,0.171-0.171c0.03-0.078,0.029-0.166-0.007-0.242c-0.455-0.972-3.178-3.534-7.921-3.19
		c-1.641,0.119-3.37,0.577-5.139,1.361c-6.256,2.774-6.467,7.148-6.302,8.788c-0.03,0-0.065,0-0.096,0
		C0.833,12.174,0,14.612,0,17.243c0,6.738,5.461,12.2,12.199,12.2c6.737,0,12.199-5.462,12.199-12.2
		c0-2.781-0.932-5.345-2.499-7.397c-1.531,0-4.789,0.066-8.287,0.14c0.916-0.676,3.04-1.94,6.368-2.177
		c1.856-0.128,3.697,0.628,5.183,2.138c1.54,1.564,2.475,3.764,2.325,5.474c-0.184,2.115-1.636,4.664-2.803,6.711
		c-0.683,1.197-1.272,2.231-1.484,2.973c-0.321,1.127-0.139,2.344,0.5,3.337c0.728,1.132,1.999,1.886,3.58,2.123
		c0.161,0.023,0.321,0.036,0.479,0.036c0.91,0,1.751-0.4,2.455-1.177C31.638,27.858,32.272,24.976,31.89,23.446z M19.328,17.8
		c0,3.932-3.198,7.13-7.129,7.13S5.07,21.732,5.07,17.8c0-3.931,3.198-7.129,7.129-7.129S19.328,13.87,19.328,17.8z"/>
</g>
<g>
</g>
<g>
</g>
<g>
</g>
<g>
</g>
<g>
</g>
<g>
</g>
<g>
</g>
<g>
</g>
<g>
</g>
<g>
</g>
<g>
</g>
<g>
</g>
<g>
</g>
<g>
</g>
<g>
</g>
</svg>
