<?xml version="1.0" encoding="iso-8859-1"?>
<!-- Generator: Adobe Illustrator 16.0.0, SVG Export Plug-In . SVG Version: 6.00 Build 0)  -->
<!DOCTYPE svg PUBLIC "-//W3C//DTD SVG 1.1//EN" "http://www.w3.org/Graphics/SVG/1.1/DTD/svg11.dtd">
<svg version="1.1" id="Layer_1" xmlns="http://www.w3.org/2000/svg" xmlns:xlink="http://www.w3.org/1999/xlink" x="0px" y="0px"
	 width="28.21px" height="32px" viewBox="0 0 28.21 32" style="enable-background:new 0 0 28.21 32;" xml:space="preserve">
<g>
	<path d="M3.831,10.979c-0.058-0.069-0.148-0.1-0.236-0.078c-0.087,0.022-0.154,0.092-0.171,0.181c0,0-2.438,13.347-3.407,20.284
		c-0.077,0.422,0.123,0.595,0.529,0.603c0.297,0,1.673,0,2.001,0s0.527-0.266,0.527-0.491c0.933-6.611,1.061-6.611,1.061-6.611
		l3.505-9.082c0.033-0.079,0.02-0.171-0.035-0.239L3.831,10.979z"/>
	<path d="M9.952,0.515C9.884,0.504,9.814,0.525,9.763,0.57C9.695,0.619,9.682,0.681,9.684,0.75l0.045,2.207
		c0.002,0.098,0.065,0.184,0.158,0.216c0.012,0.003,1.212,0.425,1.496,1.486c0.143,0.708-0.437,1.518-0.978,1.995
		c-0.324,0.287-0.673,0.501-0.983,0.602c-0.092,0.03-0.156,0.114-0.16,0.211s0.053,0.187,0.143,0.224l3.941,1.652
		c0.067,0.021,0.205,0.036,0.357-0.097c0.492-0.436,1.149-2.621,1.223-3.773C15.188,1.377,10.004,0.523,9.952,0.515z"/>
	<path d="M13.271,10.03L9.15,8.209c-0.027-0.03-0.061-0.055-0.1-0.067C9.02,8.133,5.98,7.131,6.234,5.419
		c0.065-1.133,1.489-2.166,1.505-2.175C7.801,3.2,7.838,3.127,7.836,3.05L7.777,0.76C7.774,0.691,7.741,0.625,7.686,0.582
		C7.63,0.54,7.559,0.523,7.49,0.54C7.385,0.565,4.89,1.174,3.198,2.67c-1.292,1.143-1.762,2.48-1.396,3.975
		c0.266,1.092,0.894,1.906,1.557,2.769c0.155,0.201,0.313,0.407,0.481,0.634c1.935,2.297,4.173,5.056,4.556,5.53l2.979,9.892
		c0.031,0.108,0.031,0.108,0.433,5.989c0.003,0.298,0.159,0.509,0.519,0.509c0.25,0,1.64,0,1.953,0s0.454-0.133,0.436-0.511
		c-0.508-6.655-1.305-21.23-1.305-21.23C13.403,10.141,13.35,10.064,13.271,10.03z M9.86,12.324
		c-0.572,0.504-1.444,0.451-1.948-0.12c-0.505-0.571-0.452-1.443,0.119-1.948c0.571-0.505,1.443-0.452,1.948,0.119
		C10.484,10.946,10.431,11.819,9.86,12.324z"/>
	<path d="M25.488,20.637l0.002-0.703c0-0.037-0.015-0.074-0.041-0.1c-0.027-0.026-0.062-0.041-0.099-0.042l-1.297-0.004
		c-0.037,0-0.071,0.015-0.096,0.038c-0.028,0.027-0.045,0.063-0.046,0.103l-0.002,0.704c0,0.037,0.015,0.074,0.041,0.1
		c0.027,0.025,0.063,0.042,0.101,0.04l1.296,0.004C25.424,20.778,25.487,20.715,25.488,20.637z"/>
	<path d="M25.44,17.777c0.078,0,0.141-0.062,0.141-0.14l0.002-0.703c0-0.039-0.015-0.074-0.041-0.101
		c-0.026-0.026-0.063-0.041-0.099-0.041l-1.298-0.003c-0.037,0-0.071,0.014-0.095,0.038c-0.028,0.026-0.044,0.063-0.044,0.103
		l-0.002,0.705c0,0.037,0.015,0.073,0.041,0.099c0.025,0.026,0.062,0.041,0.1,0.042L25.44,17.777z"/>
	<path d="M25.494,22.548l-1.298-0.004c-0.037,0-0.071,0.015-0.095,0.038c-0.028,0.025-0.046,0.063-0.046,0.103l-0.001,0.704
		c0,0.037,0.015,0.072,0.04,0.099c0.028,0.025,0.062,0.042,0.1,0.042l1.297,0.002c0.078,0,0.141-0.063,0.142-0.14l0.002-0.703
		c0-0.038-0.014-0.073-0.041-0.1C25.566,22.563,25.532,22.548,25.494,22.548z"/>
	<path d="M28.129,6.89c-0.054-0.051-0.124-0.082-0.199-0.083l-3.618-0.009l0.018-6.516c0-0.127-0.083-0.239-0.207-0.272
		c-0.096-0.026-0.196,0-0.266,0.065c-0.02,0.017-0.036,0.039-0.05,0.063l-1.421,2.412c-0.027,0.043-0.04,0.091-0.041,0.142
		l-0.012,4.1l-3.694-0.011c-0.155,0-0.283,0.125-0.283,0.28l-0.057,20.207c0,0.073,0.028,0.146,0.082,0.199
		c0.052,0.054,0.123,0.083,0.198,0.083l3.506,0.01l-0.004,1.263l-2.38-0.019c-0.155-0.001-0.282,0.125-0.282,0.281l-0.009,2.552
		c0,0.075,0.029,0.147,0.082,0.2c0.052,0.054,0.124,0.083,0.199,0.083l6.81,0.08c0.155,0.001,0.281-0.124,0.282-0.279l0.008-2.553
		c0-0.075-0.029-0.147-0.083-0.2c-0.052-0.053-0.124-0.083-0.199-0.083l-2.575-0.059l0.004-1.262l3.93,0.011
		c0.156,0.001,0.282-0.124,0.283-0.28L28.21,7.09C28.21,7.016,28.182,6.943,28.129,6.89z M26.469,25.883l-6.477-0.017l0.051-17.393
		l6.476,0.019L26.469,25.883z"/>
	<path d="M20.542,19.544c0.101,0.047,0.223,0.028,0.305-0.045c0,0,0.108-0.097,0.279-0.254c0.657-0.613,1.811-1.746,2.161-2.475
		c0.281-0.584,1.48-1.814,2.508-2.77l0.157-0.144c0.046-0.049,0.091-0.127,0.092-0.206l0.053-4.342c0-0.076-0.028-0.147-0.08-0.201
		c-0.053-0.055-0.125-0.084-0.201-0.083l-4.954-0.006c-0.073,0-0.141,0.03-0.193,0.075c-0.054,0.05-0.088,0.122-0.089,0.201
		l-0.202,9.99C20.377,19.395,20.44,19.497,20.542,19.544z"/>
</g>
<g>
</g>
<g>
</g>
<g>
</g>
<g>
</g>
<g>
</g>
<g>
</g>
<g>
</g>
<g>
</g>
<g>
</g>
<g>
</g>
<g>
</g>
<g>
</g>
<g>
</g>
<g>
</g>
<g>
</g>
</svg>
