<?xml version="1.0" encoding="iso-8859-1"?>
<!-- Generator: Adobe Illustrator 16.0.0, SVG Export Plug-In . SVG Version: 6.00 Build 0)  -->
<!DOCTYPE svg PUBLIC "-//W3C//DTD SVG 1.1//EN" "http://www.w3.org/Graphics/SVG/1.1/DTD/svg11.dtd">
<svg version="1.1" id="Layer_1" xmlns="http://www.w3.org/2000/svg" xmlns:xlink="http://www.w3.org/1999/xlink" x="0px" y="0px"
	 width="31.094px" height="32px" viewBox="0 0 31.094 32" style="enable-background:new 0 0 31.094 32;" xml:space="preserve">
<g>
	<path d="M29.864,24.453l-8.232-2.767c-0.186-0.062-0.379-0.094-0.575-0.094h-6.863L3.066,10.733
		c-0.713-0.696-1.855-0.682-2.553,0.03c-0.696,0.714-0.683,1.856,0.03,2.554L12.197,24.69c0.337,0.329,0.789,0.514,1.261,0.514
		h0.803v4.514h-2.376c-0.083,0-0.15,0.068-0.15,0.15v1.981c0,0.083,0.067,0.151,0.15,0.151h10.777c0.083,0,0.151-0.068,0.151-0.151
		v-1.981c0-0.082-0.068-0.15-0.151-0.15h-2.834v-4.514h0.934l7.951,2.673c0.191,0.063,0.385,0.095,0.576,0.095
		c0.754,0,1.458-0.477,1.711-1.231C31.317,25.794,30.809,24.771,29.864,24.453z"/>
	<path d="M13.453,5.771c0.025,0.016,0.053,0.024,0.082,0.024c0.019,0,0.036-0.003,0.054-0.01c0.045-0.017,0.079-0.055,0.092-0.101
		c0.004-0.018,0.364-1.417-0.455-2.433l1.116-2.047h6.113v13.693c0,0.332,0.27,0.602,0.602,0.602c0.333,0,0.602-0.27,0.602-0.602
		v-0.979h9.255c0.083,0,0.15-0.067,0.15-0.15v-2.533c0-0.083-0.067-0.15-0.15-0.15h-1.329V10.47c0-0.083-0.067-0.15-0.15-0.15
		h-0.614c-0.083,0-0.15,0.067-0.15,0.15v0.614h-0.515V10.47c0-0.083-0.067-0.15-0.15-0.15H27.39c-0.083,0-0.15,0.067-0.15,0.15
		v0.614h-0.488V10.47c0-0.083-0.068-0.15-0.151-0.15h-0.613c-0.083,0-0.151,0.067-0.151,0.15v0.614H25.17V10.47
		c0-0.083-0.067-0.15-0.15-0.15h-0.614c-0.083,0-0.15,0.067-0.15,0.15v0.614h-0.489V10.47c0-0.083-0.067-0.15-0.15-0.15h-0.614
		c-0.083,0-0.15,0.067-0.15,0.15v0.614h-1.192V0.602C21.658,0.269,21.39,0,21.057,0h-7.072c-0.22,0-0.423,0.121-0.528,0.314
		l-1.212,2.222c-0.383-0.165-0.785-0.252-1.202-0.252c-1.024,0-1.772,0.498-1.804,0.519C9.196,2.831,9.172,2.878,9.172,2.929
		c0.001,0.051,0.026,0.098,0.069,0.125L13.453,5.771z"/>
	<path d="M7.773,12.652c1.72,0,3.118-1.399,3.118-3.119c0-1.719-1.398-3.118-3.118-3.118S4.655,7.814,4.655,9.533
		C4.655,11.252,6.054,12.652,7.773,12.652z"/>
	<path d="M29.771,19.58l-6.64-2.533c-0.206-0.079-0.424-0.118-0.645-0.118H16.32l-4.324-4.177c-0.716-0.692-1.86-0.673-2.554,0.044
		c-0.692,0.718-0.673,1.86,0.045,2.554l4.849,4.684c0.337,0.325,0.787,0.507,1.255,0.507h6.563l6.329,2.413
		c0.212,0.081,0.429,0.12,0.643,0.12c0.728,0,1.413-0.443,1.688-1.163C31.17,20.978,30.702,19.934,29.771,19.58z"/>
</g>
<g>
</g>
<g>
</g>
<g>
</g>
<g>
</g>
<g>
</g>
<g>
</g>
<g>
</g>
<g>
</g>
<g>
</g>
<g>
</g>
<g>
</g>
<g>
</g>
<g>
</g>
<g>
</g>
<g>
</g>
</svg>
