<?xml version="1.0" encoding="utf-8"?>
<!-- Generator: Adobe Illustrator 16.0.4, SVG Export Plug-In . SVG Version: 6.00 Build 0)  -->
<!DOCTYPE svg PUBLIC "-//W3C//DTD SVG 1.1//EN" "http://www.w3.org/Graphics/SVG/1.1/DTD/svg11.dtd">
<svg version="1.1" id="Layer_1" xmlns="http://www.w3.org/2000/svg" xmlns:xlink="http://www.w3.org/1999/xlink" x="0px" y="0px"
	 width="26.951px" height="32px" viewBox="0 0 26.951 32" enable-background="new 0 0 26.951 32" xml:space="preserve">
<path d="M23.97,2.756c-3.541-4.129-9.57-0.909-10.425-0.42C10.798,0.46,6.96-1.193,3.87,1.163C1.649,2.854,0.371,5.037,0.068,7.65
	c-0.456,3.936,1.498,7.757,2.515,8.991c0.516,0.625,0.695,3.668,0.826,5.892c0.279,4.729,0.52,8.817,2.939,9.329
	c0.618,0.134,1.209,0.023,1.711-0.311c1.303-0.869,1.713-3.046,2.187-5.566c0.61-3.243,1.17-5.717,2.616-5.616
	c0.436,0.03,0.62,0.188,0.731,0.323c0.734,0.891,0.416,3.533,0.182,5.465c-0.337,2.802-0.629,5.222,1.215,5.76
	C15.158,31.962,15.362,32,15.595,32c0.372,0,0.817-0.095,1.307-0.389c2.832-1.706,5.062-9.062,5.923-13.034
	c2.254-1.753,3.725-4.316,4.056-7.088C27.133,9.351,26.835,6.101,23.97,2.756z M24.888,11.252c-0.279,2.345-1.574,4.509-3.554,5.938
	c-0.204,0.146-0.345,0.365-0.396,0.61c-1.174,5.691-3.448,11.117-5.072,12.095c-0.072,0.043-0.164,0.09-0.243,0.101
	c-0.228-0.529,0.003-2.438,0.144-3.601c0.321-2.668,0.653-5.428-0.627-6.979c-0.515-0.624-1.252-0.984-2.137-1.048
	c-0.09-0.007-0.179-0.011-0.266-0.011c-3.097,0-3.852,4.016-4.462,7.258c-0.307,1.632-0.728,3.867-1.328,4.269
	c-0.03,0.021-0.064,0.044-0.183,0.019c-0.923-0.194-1.225-5.305-1.354-7.486c-0.216-3.668-0.394-5.971-1.281-7.047
	c-0.687-0.834-2.455-4.158-2.07-7.485C2.297,5.83,3.314,4.106,5.084,2.757c3.913-2.985,10.491,3.876,10.558,3.946
	c0.381,0.401,1.017,0.419,1.418,0.039c0.401-0.38,0.42-1.014,0.039-1.417c-0.09-0.095-0.752-0.787-1.777-1.643
	c1.604-0.736,5.125-1.955,7.125,0.377C24.341,6.271,25.185,8.758,24.888,11.252z M13.818,12.746c0,1.225-0.705,2.218-1.575,2.218
	c-0.87,0-1.575-0.993-1.575-2.218c0-1.225,0.705-2.218,1.575-2.218C13.113,10.528,13.818,11.521,13.818,12.746z M7.655,6.48
	c0,0.829-0.51,1.5-1.139,1.5c-0.629,0-1.139-0.671-1.139-1.5s0.51-1.5,1.139-1.5C7.145,4.98,7.655,5.651,7.655,6.48z M21.756,12.746
	c0,0.918-0.524,1.663-1.172,1.663s-1.172-0.745-1.172-1.663s0.524-1.663,1.172-1.663S21.756,11.828,21.756,12.746z M19.617,7.913
	c0.052-0.744,0.527-1.316,1.062-1.279c0.534,0.037,0.927,0.67,0.875,1.414c-0.052,0.744-0.527,1.317-1.062,1.28
	C19.957,9.29,19.565,8.657,19.617,7.913z M10.691,15.354c-0.035,0.505-0.358,0.895-0.721,0.87c-0.363-0.025-0.629-0.456-0.594-0.96
	c0.035-0.505,0.358-0.895,0.721-0.869C10.46,14.418,10.726,14.849,10.691,15.354z"/>
</svg>
