<?xml version="1.0" encoding="iso-8859-1"?>
<!-- Generator: Adobe Illustrator 16.0.0, SVG Export Plug-In . SVG Version: 6.00 Build 0)  -->
<!DOCTYPE svg PUBLIC "-//W3C//DTD SVG 1.1//EN" "http://www.w3.org/Graphics/SVG/1.1/DTD/svg11.dtd">
<svg version="1.1" id="Layer_1" xmlns="http://www.w3.org/2000/svg" xmlns:xlink="http://www.w3.org/1999/xlink" x="0px" y="0px"
	 width="18.332px" height="32px" viewBox="0 0 18.332 32" style="enable-background:new 0 0 18.332 32;" xml:space="preserve">
<g>
	<path d="M4.7,10.353l0,3.972L0.066,28.914c-0.356,1.212,0.79,2.668,2.078,3.003C2.36,31.973,2.577,32,2.791,32
		c1.061,0,2.577-0.653,2.873-1.663l4.085-15.426c0.058-0.198,0.087-0.401,0.087-0.606l-0.521-3.964L4.7,10.353z"/>
	<path d="M18.332,4.793l-1.208-0.397V3.909h-3.138C13.719,1.508,12.326,0,10.276,0L1.68,0.054v9.532l8.601-0.055
		c2.032,0,3.42-1.487,3.7-3.858h3.143V5.25l1.208-0.281V4.793z M10.276,8.321L2.89,8.368V1.257l7.39-0.046
		c2.361,0,2.544,2.721,2.544,3.555S12.641,8.321,10.276,8.321z"/>
</g>
<g>
</g>
<g>
</g>
<g>
</g>
<g>
</g>
<g>
</g>
<g>
</g>
<g>
</g>
<g>
</g>
<g>
</g>
<g>
</g>
<g>
</g>
<g>
</g>
<g>
</g>
<g>
</g>
<g>
</g>
</svg>
