<?xml version="1.0" encoding="iso-8859-1"?>
<!-- Generator: Adobe Illustrator 16.0.0, SVG Export Plug-In . SVG Version: 6.00 Build 0)  -->
<!DOCTYPE svg PUBLIC "-//W3C//DTD SVG 1.1//EN" "http://www.w3.org/Graphics/SVG/1.1/DTD/svg11.dtd">
<svg version="1.1" id="Layer_1" xmlns="http://www.w3.org/2000/svg" xmlns:xlink="http://www.w3.org/1999/xlink" x="0px" y="0px"
	 width="21.288px" height="32px" viewBox="0 0 21.288 32" style="enable-background:new 0 0 21.288 32;" xml:space="preserve">
<g>
	<path d="M16.868,12.416c-2.27-3.104-4.618-6.315-4.84-9.439L11.817,0l-2.14,2.08C5.78,5.866,0,15.629,0,21.356
		C0,27.226,4.775,32,10.644,32c5.869,0,10.644-4.774,10.644-10.644C21.288,18.458,19.141,15.523,16.868,12.416z M10.644,29.225
		c-4.339,0-7.869-3.53-7.869-7.869c0-3.826,3.628-10.986,7.09-15.331c0.985,2.863,2.964,5.57,4.763,8.029
		c1.998,2.731,3.884,5.311,3.884,7.302C18.512,25.695,14.982,29.225,10.644,29.225z"/>
	<path d="M8.389,25.285c-0.238-0.247-0.457-0.532-0.673-0.828c-0.23-0.313-0.391-0.581-0.581-0.947l-0.152-0.289l-0.077-0.146
		L6.887,23.04l-0.005-0.009c-0.018-0.032,0.021,0.038,0.017,0.03l-0.001-0.004l-0.006-0.016l-0.025-0.065l-0.209-0.516
		c-0.047-0.181-0.108-0.356-0.163-0.535c-0.037-0.184-0.073-0.368-0.118-0.55c-0.053-0.372-0.105-0.745-0.127-1.117
		c-0.025-0.744,0.012-1.469,0.07-2.106c0.133-1.268,0.287-2.195,0.287-2.195c0,0-0.733,0.617-1.337,1.895
		c-0.159,0.316-0.295,0.675-0.413,1.067c-0.053,0.199-0.108,0.403-0.164,0.612c-0.032,0.216-0.064,0.437-0.098,0.662
		c-0.016,0.229-0.032,0.463-0.048,0.699c0.002,0.239,0.022,0.482,0.035,0.727c0.061,0.491,0.168,0.987,0.344,1.467
		c0.093,0.236,0.202,0.469,0.314,0.696l0.042,0.085l0.04,0.075l0.022,0.035l0.086,0.139l0.173,0.277
		c0.26,0.375,0.603,0.801,0.916,1.111c0.323,0.331,0.691,0.591,1.04,0.825c0.351,0.232,0.721,0.386,1.057,0.517
		c0.683,0.248,1.282,0.305,1.691,0.299c0.413-0.009,0.637-0.072,0.637-0.072s-0.878-0.345-1.837-1.12
		C8.862,25.763,8.633,25.523,8.389,25.285z"/>
</g>
<g>
</g>
<g>
</g>
<g>
</g>
<g>
</g>
<g>
</g>
<g>
</g>
<g>
</g>
<g>
</g>
<g>
</g>
<g>
</g>
<g>
</g>
<g>
</g>
<g>
</g>
<g>
</g>
<g>
</g>
</svg>
