<?xml version="1.0" encoding="iso-8859-1"?>
<!-- Generator: Adobe Illustrator 16.0.0, SVG Export Plug-In . SVG Version: 6.00 Build 0)  -->
<!DOCTYPE svg PUBLIC "-//W3C//DTD SVG 1.1//EN" "http://www.w3.org/Graphics/SVG/1.1/DTD/svg11.dtd">
<svg version="1.1" id="Layer_1" xmlns="http://www.w3.org/2000/svg" xmlns:xlink="http://www.w3.org/1999/xlink" x="0px" y="0px"
	 width="32px" height="20.62px" viewBox="0 0 32 20.62" style="enable-background:new 0 0 32 20.62;" xml:space="preserve">
<path d="M31.793,8.977c-0.738-0.299-1.823-1.708-2.974-3.198C26.731,3.07,24.364,0,21.813,0c-3.37,0-5.209,2.047-5.845,2.93
	c-0.712-0.8-2.66-2.656-5.398-2.656c-2.15,0-4.771,3.077-7.081,5.792C2.155,7.632,0.895,9.111,0.222,9.34
	C0.095,9.384,0.008,9.5,0,9.633s0.066,0.259,0.188,0.316c1.13,0.533,2.288,1.971,3.629,3.635c1.876,2.33,4.003,4.97,6.828,6.054
	c1.72,0.66,3.569,0.981,5.654,0.981c1.994,0,3.927-0.304,5.387-0.568c2.51-0.455,6.262-5.444,8.504-8.425
	c0.716-0.953,1.457-1.938,1.643-2.058c0.109-0.062,0.175-0.182,0.166-0.308C31.991,9.134,31.912,9.024,31.793,8.977z M28.328,9.951
	c-1.491,0.986-5.219,2.993-11.191,3.267c-6.171,0.279-10.729-1.902-12.681-3.06C5.785,9.848,6.912,9.223,7.926,8.66
	c1.149-0.637,2.143-1.188,3.179-1.188c1.281,0,2.544,0.415,3.558,0.749c0.814,0.268,1.46,0.478,1.934,0.443
	c0.427-0.028,0.992-0.195,1.646-0.39c0.996-0.295,2.235-0.662,3.429-0.662c0.859,0,1.959,0.511,3.124,1.053
	C25.952,9.205,27.141,9.758,28.328,9.951z"/>
<g>
</g>
<g>
</g>
<g>
</g>
<g>
</g>
<g>
</g>
<g>
</g>
<g>
</g>
<g>
</g>
<g>
</g>
<g>
</g>
<g>
</g>
<g>
</g>
<g>
</g>
<g>
</g>
<g>
</g>
</svg>
