<?xml version="1.0" encoding="iso-8859-1"?>
<!-- Generator: Adobe Illustrator 16.0.0, SVG Export Plug-In . SVG Version: 6.00 Build 0)  -->
<!DOCTYPE svg PUBLIC "-//W3C//DTD SVG 1.1//EN" "http://www.w3.org/Graphics/SVG/1.1/DTD/svg11.dtd">
<svg version="1.1" id="Layer_1" xmlns="http://www.w3.org/2000/svg" xmlns:xlink="http://www.w3.org/1999/xlink" x="0px" y="0px"
	 width="32px" height="24.89px" viewBox="0 0 32 24.89" style="enable-background:new 0 0 32 24.89;" xml:space="preserve">
<g>
	<path d="M29.89,4.339c-0.461,0-3.562,0-7.533,0V1.085c0-0.6-0.486-1.085-1.084-1.085H11.088c-0.599,0-1.085,0.485-1.085,1.085
		v3.254c-4.201,0-7.516,0-7.955,0C0.783,4.339,0,5.002,0,5.966s0,1.928,0,1.928h32c0,0,0-0.844,0-1.777
		C32,5.183,31.277,4.339,29.89,4.339z M20.188,4.339c-2.595,0-5.399,0-8.015,0V2.169h8.015V4.339z"/>
	<path d="M0.121,23.443c0,0.844,0.42,1.446,1.446,1.446h28.865c1.024,0,1.446-0.828,1.446-1.446V9.04c-2.29,0-29.317,0-31.758,0
		V23.443z M16,11.315c3.121,0,5.65,2.529,5.65,5.65c0,3.12-2.529,5.65-5.65,5.65c-3.121,0-5.65-2.53-5.65-5.65
		C10.35,13.844,12.879,11.315,16,11.315z"/>
	<polygon points="14.789,20.671 17.211,20.671 17.211,18.177 19.706,18.177 19.706,15.753 17.211,15.753 17.211,13.258 
		14.789,13.258 14.789,15.753 12.293,15.753 12.293,18.177 14.789,18.177 	"/>
</g>
<g>
</g>
<g>
</g>
<g>
</g>
<g>
</g>
<g>
</g>
<g>
</g>
<g>
</g>
<g>
</g>
<g>
</g>
<g>
</g>
<g>
</g>
<g>
</g>
<g>
</g>
<g>
</g>
<g>
</g>
</svg>
