<?xml version="1.0" encoding="iso-8859-1"?>
<!-- Generator: Adobe Illustrator 16.0.0, SVG Export Plug-In . SVG Version: 6.00 Build 0)  -->
<!DOCTYPE svg PUBLIC "-//W3C//DTD SVG 1.1//EN" "http://www.w3.org/Graphics/SVG/1.1/DTD/svg11.dtd">
<svg version="1.1" id="Layer_1" xmlns="http://www.w3.org/2000/svg" xmlns:xlink="http://www.w3.org/1999/xlink" x="0px" y="0px"
	 width="32px" height="30.149px" viewBox="0 0 32 30.149" style="enable-background:new 0 0 32 30.149;" xml:space="preserve">
<path d="M18.238,6.648c0.009-0.094-0.036-0.185-0.117-0.233c-0.082-0.047-0.183-0.045-0.261,0.007c0,0-11.715,8.097-17.583,12.525
	c-0.37,0.255-0.35,0.533-0.055,0.84c0.221,0.221,1.242,1.242,1.485,1.485c0.244,0.244,0.589,0.194,0.756,0.027
	c5.599-4.214,5.693-4.119,5.693-4.119l9.342-4.139c0.083-0.034,0.142-0.112,0.151-0.204L18.238,6.648z"/>
<path d="M30.547,3.425c-0.042-0.058-0.109-0.095-0.181-0.099c-0.086-0.015-0.143,0.022-0.193,0.075l-1.604,1.671
	c-0.072,0.074-0.088,0.184-0.044,0.277c0.007,0.012,0.584,1.215,0.007,2.213c-0.418,0.632-1.45,0.802-2.206,0.756
	c-0.453-0.028-0.871-0.128-1.176-0.283c-0.09-0.046-0.2-0.031-0.276,0.038c-0.075,0.07-0.099,0.178-0.06,0.272l1.699,4.151
	c0.034,0.065,0.125,0.179,0.337,0.192c0.688,0.042,2.798-1.092,3.708-1.893C33.793,7.951,30.58,3.471,30.547,3.425z"/>
<path d="M25.948,12.951l-1.707-4.41c0.002-0.043-0.004-0.086-0.024-0.124c-0.016-0.03-1.528-3.029-0.069-4.111
	c0.889-0.793,2.712-0.502,2.731-0.498c0.08,0.013,0.161-0.013,0.217-0.072l1.655-1.743c0.05-0.053,0.074-0.127,0.065-0.2
	c-0.01-0.073-0.051-0.138-0.114-0.177c-0.097-0.058-2.401-1.459-4.767-1.604c-1.807-0.11-3.148,0.534-3.986,1.914
	c-0.612,1.008-0.751,2.078-0.899,3.21c-0.034,0.264-0.07,0.534-0.113,0.828c-0.269,3.141-0.655,6.849-0.723,7.486l-5.131,9.552
	c-0.058,0.104-0.058,0.104-4.124,4.766c-0.219,0.223-0.26,0.496,0.007,0.762c0.186,0.186,1.217,1.217,1.449,1.449
	c0.232,0.232,0.435,0.238,0.702-0.056c4.562-5.316,14.788-16.725,14.788-16.725C25.964,13.131,25.981,13.034,25.948,12.951z
	 M21.715,12.121c-0.799-0.049-1.407-0.736-1.357-1.534c0.049-0.798,0.736-1.407,1.535-1.357c0.799,0.049,1.406,0.736,1.357,1.534
	C23.2,11.562,22.513,12.17,21.715,12.121z"/>
<g>
</g>
<g>
</g>
<g>
</g>
<g>
</g>
<g>
</g>
<g>
</g>
<g>
</g>
<g>
</g>
<g>
</g>
<g>
</g>
<g>
</g>
<g>
</g>
<g>
</g>
<g>
</g>
<g>
</g>
</svg>
