<?xml version="1.0" encoding="iso-8859-1"?>
<!-- Generator: Adobe Illustrator 16.0.0, SVG Export Plug-In . SVG Version: 6.00 Build 0)  -->
<!DOCTYPE svg PUBLIC "-//W3C//DTD SVG 1.1//EN" "http://www.w3.org/Graphics/SVG/1.1/DTD/svg11.dtd">
<svg version="1.1" id="Layer_1" xmlns="http://www.w3.org/2000/svg" xmlns:xlink="http://www.w3.org/1999/xlink" x="0px" y="0px"
	 width="24.99px" height="32px" viewBox="0 0 24.99 32" style="enable-background:new 0 0 24.99 32;" xml:space="preserve">
<g>
	<circle cx="6.199" cy="10.681" r="1.168"/>
	<rect x="8.811" y="9.691" width="11.368" height="1.979"/>
	<circle cx="6.199" cy="15.299" r="1.168"/>
	<rect x="8.811" y="14.31" width="11.368" height="1.979"/>
	<circle cx="6.199" cy="20.413" r="1.168"/>
	<rect x="8.811" y="19.423" width="11.368" height="1.979"/>
	<circle cx="6.199" cy="25.031" r="1.168"/>
	<rect x="8.811" y="24.042" width="11.368" height="1.979"/>
	<path d="M23.671,2.557h-5.005V0.99c0,0-3.739-0.99-6.233-0.99S6.199,0.99,6.199,0.99v1.567h-4.88C0.591,2.557,0,3.147,0,3.876
		v26.805C0,31.409,0.591,32,1.319,32h22.352c0.729,0,1.319-0.591,1.319-1.319V3.876C24.99,3.147,24.399,2.557,23.671,2.557z
		 M12.495,1.142c0.672,0,1.216,0.544,1.216,1.216c0,0.671-0.544,1.215-1.216,1.215s-1.216-0.544-1.216-1.215
		C11.279,1.686,11.823,1.142,12.495,1.142z M22.351,29.361H2.64V5.196h3.56v0.907h12.467V5.196h3.685V29.361z"/>
</g>
<g>
</g>
<g>
</g>
<g>
</g>
<g>
</g>
<g>
</g>
<g>
</g>
<g>
</g>
<g>
</g>
<g>
</g>
<g>
</g>
<g>
</g>
<g>
</g>
<g>
</g>
<g>
</g>
<g>
</g>
</svg>
