<?xml version="1.0" encoding="iso-8859-1"?>
<!-- Generator: Adobe Illustrator 16.0.0, SVG Export Plug-In . SVG Version: 6.00 Build 0)  -->
<!DOCTYPE svg PUBLIC "-//W3C//DTD SVG 1.1//EN" "http://www.w3.org/Graphics/SVG/1.1/DTD/svg11.dtd">
<svg version="1.1" id="Layer_1" xmlns="http://www.w3.org/2000/svg" xmlns:xlink="http://www.w3.org/1999/xlink" x="0px" y="0px"
	 width="30.319px" height="30.991px" viewBox="0 0 30.319 30.991" style="enable-background:new 0 0 30.319 30.991;"
	 xml:space="preserve">
<path d="M27.919,7.458c-2.849-3.323-7.7-0.731-8.388-0.338c-2.21-1.51-5.299-2.84-7.786-0.944c-1.787,1.361-2.815,3.117-3.059,5.22
	c-0.367,3.167,1.206,6.242,2.024,7.235c0.415,0.503,0.559,2.951,0.665,4.739c0.225,3.808,0.419,7.096,2.365,7.508
	c0.498,0.106,0.973,0.019,1.377-0.25c1.048-0.699,1.378-2.451,1.76-4.479c0.491-2.611,0.941-4.601,2.105-4.521
	c0.351,0.024,0.499,0.153,0.589,0.262c0.59,0.716,0.334,2.843,0.146,4.396c-0.271,2.255-0.506,4.202,0.978,4.635
	c0.134,0.039,0.298,0.07,0.486,0.07c0.299,0,0.658-0.076,1.051-0.313c2.279-1.372,4.072-7.29,4.765-10.487
	c1.814-1.412,2.998-3.474,3.264-5.705C30.466,12.766,30.227,10.15,27.919,7.458z M28.659,14.295
	c-0.225,1.888-1.268,3.628-2.859,4.777c-0.164,0.118-0.278,0.294-0.318,0.491c-0.944,4.58-2.775,8.945-4.082,9.732
	c-0.058,0.035-0.132,0.072-0.195,0.08c-0.184-0.426,0.002-1.961,0.115-2.896c0.259-2.146,0.526-4.367-0.505-5.616
	c-0.414-0.501-1.008-0.794-1.719-0.843c-0.073-0.006-0.144-0.008-0.214-0.008c-2.492,0-3.1,3.229-3.591,5.839
	c-0.247,1.313-0.585,3.112-1.069,3.435c-0.024,0.018-0.051,0.035-0.147,0.015c-0.743-0.157-0.986-4.269-1.09-6.024
	c-0.174-2.952-0.317-4.806-1.031-5.671c-0.553-0.671-1.976-3.346-1.666-6.023c0.191-1.65,1.01-3.037,2.434-4.123
	c3.148-2.402,8.442,3.12,8.496,3.176c0.307,0.322,0.816,0.336,1.14,0.031c0.324-0.307,0.338-0.816,0.032-1.14
	c-0.072-0.077-0.605-0.634-1.43-1.322c1.291-0.593,4.124-1.573,5.734,0.304C28.219,10.287,28.897,12.288,28.659,14.295z"/>
<path style="fill:#070909;" d="M10.192,15.913L9.887,14.54C9.888,15.044,10.007,15.493,10.192,15.913z"/>
<path style="fill:#070909;" d="M9.854,14.392l0.033,0.148c0-0.045-0.006-0.086-0.004-0.132C9.874,14.401,9.863,14.397,9.854,14.392z
	"/>
<path style="fill:#070909;" d="M12.519,0.032c-5.054,0.421-8.823,4.876-8.401,9.93c0.133,1.601,0.674,3.07,1.507,4.321L4.49,15.89
	l1.014,0.717L0,24.401l3.055,2.157l5.504-7.796l1.255,0.885l1.109-1.57c0.196,0.053,0.395,0.094,0.595,0.133
	c-0.424-0.815-0.982-1.515-1.326-2.297l0.184,0.828l-0.184-0.828c-0.186-0.42-0.305-0.869-0.305-1.373l-0.033-0.148
	c-1.539-1.018-2.617-2.699-2.782-4.676C6.786,6.291,9.34,3.271,12.765,2.986c3.08-0.257,5.825,1.787,6.555,4.692
	c1.2,1.532,2.045,0.544,3.016-0.083C21.521,2.971,17.289-0.366,12.519,0.032z"/>
<g>
</g>
<g>
</g>
<g>
</g>
<g>
</g>
<g>
</g>
<g>
</g>
<g>
</g>
<g>
</g>
<g>
</g>
<g>
</g>
<g>
</g>
<g>
</g>
<g>
</g>
<g>
</g>
<g>
</g>
</svg>
