<?xml version="1.0" encoding="iso-8859-1"?>
<!-- Generator: Adobe Illustrator 16.0.0, SVG Export Plug-In . SVG Version: 6.00 Build 0)  -->
<!DOCTYPE svg PUBLIC "-//W3C//DTD SVG 1.1//EN" "http://www.w3.org/Graphics/SVG/1.1/DTD/svg11.dtd">
<svg version="1.1" id="Layer_1" xmlns="http://www.w3.org/2000/svg" xmlns:xlink="http://www.w3.org/1999/xlink" x="0px" y="0px"
	 width="31.082px" height="32px" viewBox="0 0 31.082 32" style="enable-background:new 0 0 31.082 32;" xml:space="preserve">
<g>
	<path d="M30.558,5.903c-0.737-0.792-1.977-0.837-2.77-0.099l-9.685,9.015c-0.101,0.094-0.188,0.195-0.265,0.303
		c-2.01,0.261-5.495,1.062-7.959,3.525C6.725,21.802,0.642,29.01,0.385,29.315c-0.582,0.689-0.494,1.72,0.195,2.301
		C0.887,31.874,1.261,32,1.632,32c0.465,0,0.926-0.197,1.249-0.58c0.063-0.074,6.25-7.406,9.308-10.465
		c2.616-2.615,7.217-2.693,7.259-2.693c0.344-0.002,0.661-0.111,0.923-0.294c0.143-0.077,0.279-0.167,0.403-0.282l9.685-9.014
		C31.25,7.935,31.294,6.695,30.558,5.903z"/>
	<path d="M15.092,10.107l0.105,0.002c0.134,0,0.269-0.018,0.403-0.036c0.396,0.384,3.549,3.416,3.849,3.116
		c0.316-0.316-2.229-3.506-1.966-3.848c0.014-0.008,0.027-0.017,0.04-0.025c0.444-0.159,3.183,1.883,3.396,1.75
		c0.183-0.114-1.209-2.487-1.422-3.363c0.091-0.091,0.183-0.181,0.271-0.272c0.761,0.352,2.717,2.233,3.002,1.948
		c0.326-0.327-1.64-3.273-1.452-3.583c0.188-0.31,3.003,2.414,3.302,2.114c0.3-0.3-1.752-3.283-1.394-3.643
		c0.359-0.359,2.938,2.37,3.189,2.118c0.163-0.162-0.398-1.587-1.103-2.596l0.177-0.321c0.476-0.864,0.272-1.558,0.018-1.989
		C24.992,0.609,23.739,0,22.461,0c-0.955,0-1.773,0.334-2.305,0.941c-0.286,0.328-0.695,0.833-1.169,1.418
		c-1.273,1.573-3.644,4.5-4.395,4.661c-0.956,0.204-1.829-0.486-2.169-1.185l-0.253-0.52l-0.314,0.485
		c-0.385,0.593-0.339,1.61,0.109,2.473C12.307,8.928,13.165,10.037,15.092,10.107z M14.729,7.659
		c0.902-0.193,2.692-2.328,4.766-4.889c0.467-0.577,0.87-1.076,1.153-1.399c0.405-0.463,1.049-0.718,1.813-0.718
		c1.043,0,2.087,0.488,2.483,1.16c0.174,0.293,0.22,0.606,0.137,0.934c-0.285-0.209-0.605-0.318-0.946-0.318
		c-1.036,0-1.924,0.953-2.359,1.521l-0.189,0.252c-1.44,1.95-2.747,3.361-3.91,4.227l-0.029,0.021
		c-0.905,0.668-1.724,1.005-2.449,1.005l-0.082-0.001C13.52,9.396,12.82,8.5,12.546,7.972c-0.225-0.429-0.309-0.865-0.296-1.219
		C12.873,7.486,13.821,7.852,14.729,7.659z"/>
</g>
<g>
</g>
<g>
</g>
<g>
</g>
<g>
</g>
<g>
</g>
<g>
</g>
<g>
</g>
<g>
</g>
<g>
</g>
<g>
</g>
<g>
</g>
<g>
</g>
<g>
</g>
<g>
</g>
<g>
</g>
</svg>
