<?xml version="1.0" encoding="iso-8859-1"?>
<!-- Generator: Adobe Illustrator 16.0.0, SVG Export Plug-In . SVG Version: 6.00 Build 0)  -->
<!DOCTYPE svg PUBLIC "-//W3C//DTD SVG 1.1//EN" "http://www.w3.org/Graphics/SVG/1.1/DTD/svg11.dtd">
<svg version="1.1" id="Layer_1" xmlns="http://www.w3.org/2000/svg" xmlns:xlink="http://www.w3.org/1999/xlink" x="0px" y="0px"
	 width="26.951px" height="32px" viewBox="0 0 26.951 32" style="enable-background:new 0 0 26.951 32;" xml:space="preserve">
<path d="M23.969,2.756c-3.541-4.129-9.569-0.909-10.424-0.42C10.798,0.46,6.96-1.193,3.87,1.163C1.649,2.854,0.371,5.037,0.068,7.65
	c-0.456,3.936,1.498,7.757,2.515,8.991c0.516,0.625,0.695,3.668,0.826,5.89c0.279,4.731,0.52,8.818,2.939,9.331
	c0.618,0.132,1.209,0.023,1.711-0.311c1.303-0.869,1.713-3.046,2.187-5.566c0.61-3.245,1.17-5.718,2.616-5.618
	c0.436,0.031,0.62,0.19,0.731,0.325c0.734,0.889,0.416,3.533,0.182,5.463c-0.337,2.802-0.629,5.222,1.215,5.76
	C15.158,31.962,15.362,32,15.595,32c0.372,0,0.817-0.095,1.306-0.389c2.833-1.706,5.061-9.06,5.922-13.034
	c2.254-1.753,3.725-4.316,4.056-7.088C27.133,9.351,26.835,6.101,23.969,2.756z M24.888,11.252
	c-0.279,2.345-1.575,4.509-3.554,5.937c-0.204,0.147-0.345,0.365-0.396,0.611c-1.173,5.691-3.448,11.117-5.072,12.094
	c-0.072,0.043-0.164,0.09-0.243,0.1c-0.228-0.529,0.003-2.438,0.143-3.6c0.322-2.668,0.654-5.427-0.627-6.979
	c-0.514-0.624-1.253-0.986-2.136-1.048c-0.09-0.006-0.179-0.009-0.266-0.009c-3.097,0-3.852,4.014-4.462,7.256
	c-0.307,1.632-0.728,3.869-1.328,4.269c-0.03,0.021-0.064,0.044-0.183,0.018c-0.923-0.195-1.225-5.305-1.354-7.487
	c-0.216-3.668-0.394-5.971-1.281-7.047c-0.687-0.834-2.455-4.158-2.07-7.485C2.297,5.83,3.314,4.106,5.084,2.757
	c3.913-2.985,10.491,3.876,10.558,3.946c0.381,0.401,1.015,0.419,1.417,0.039c0.402-0.38,0.42-1.014,0.04-1.417
	c-0.09-0.095-0.752-0.787-1.777-1.643c1.604-0.736,5.125-1.955,7.125,0.377C24.341,6.271,25.185,8.758,24.888,11.252z"/>
<g>
</g>
<g>
</g>
<g>
</g>
<g>
</g>
<g>
</g>
<g>
</g>
<g>
</g>
<g>
</g>
<g>
</g>
<g>
</g>
<g>
</g>
<g>
</g>
<g>
</g>
<g>
</g>
<g>
</g>
</svg>
