<?xml version="1.0" encoding="iso-8859-1"?>
<!-- Generator: Adobe Illustrator 16.0.0, SVG Export Plug-In . SVG Version: 6.00 Build 0)  -->
<!DOCTYPE svg PUBLIC "-//W3C//DTD SVG 1.1//EN" "http://www.w3.org/Graphics/SVG/1.1/DTD/svg11.dtd">
<svg version="1.1" id="Layer_1" xmlns="http://www.w3.org/2000/svg" xmlns:xlink="http://www.w3.org/1999/xlink" x="0px" y="0px"
	 width="32px" height="31.757px" viewBox="0 0 32 31.757" style="enable-background:new 0 0 32 31.757;" xml:space="preserve">
<g>
	<path d="M2.906,17.095c-0.269-0.269-0.704-0.269-0.973,0l-1.73,1.73c-0.269,0.269-0.269,0.704,0,0.973l11.757,11.757
		c0.269,0.269,0.705,0.269,0.973,0l1.731-1.731c0.269-0.269,0.269-0.705,0-0.973L2.906,17.095z"/>
	<path d="M21.233,4.767c-0.133-0.133-0.31-0.201-0.487-0.201c-0.146,0-0.292,0.046-0.416,0.14L4.966,16.381
		c-0.158,0.121-0.257,0.303-0.27,0.501s0.06,0.393,0.2,0.533l9.446,9.446c0.004,0.003,0.007,0.006,0.01,0.01
		c0.135,0.134,0.311,0.202,0.487,0.202s0.352-0.067,0.486-0.202c0.054-0.054,0.097-0.114,0.129-0.179l11.795-15.055
		c0.214-0.274,0.191-0.665-0.055-0.911L21.233,4.767z M14.754,25.154l-8.14-8.141l14.06-10.684l4.951,4.951L14.754,25.154z"/>
	<path d="M31.799,3.258l-3.057-3.057c-0.243-0.243-0.626-0.27-0.901-0.063l-4.898,3.695c-0.159,0.12-0.258,0.303-0.272,0.501
		c-0.014,0.199,0.059,0.394,0.2,0.535l4.261,4.26c0.003,0.003,0.007,0.006,0.01,0.01c0.269,0.269,0.704,0.269,0.973,0
		c0.057-0.057,0.102-0.121,0.135-0.189l3.613-4.791C32.068,3.885,32.042,3.501,31.799,3.258z"/>
</g>
<g>
</g>
<g>
</g>
<g>
</g>
<g>
</g>
<g>
</g>
<g>
</g>
<g>
</g>
<g>
</g>
<g>
</g>
<g>
</g>
<g>
</g>
<g>
</g>
<g>
</g>
<g>
</g>
<g>
</g>
</svg>
