<?xml version="1.0" encoding="iso-8859-1"?>
<!-- Generator: Adobe Illustrator 16.0.0, SVG Export Plug-In . SVG Version: 6.00 Build 0)  -->
<!DOCTYPE svg PUBLIC "-//W3C//DTD SVG 1.1//EN" "http://www.w3.org/Graphics/SVG/1.1/DTD/svg11.dtd">
<svg version="1.1" id="Layer_1" xmlns="http://www.w3.org/2000/svg" xmlns:xlink="http://www.w3.org/1999/xlink" x="0px" y="0px"
	 width="28.231px" height="32px" viewBox="0 0 28.231 32" style="enable-background:new 0 0 28.231 32;" xml:space="preserve">
<g>
	<path d="M6.166,14.746c1.755-0.01,3.468-0.075,6.668-0.471v-0.018l0.465-0.03v0.047v0.412l-0.408,0.05
		c-0.692,0.086-1.306,0.154-1.878,0.212c0.331,0.555,0.767,0.902,1.249,0.902c1.028,0,1.862-1.537,1.862-3.433
		s-0.833-3.433-1.862-3.433c-0.323,0-0.622,0.165-0.887,0.431c-0.048,0.249-0.139,0.509-0.295,0.769
		c0.419-0.054,0.967-0.118,1.706-0.196L13.3,9.934v0.45l-0.733,0.097c-1.892,0.204-2.403,0.31-2.874,0.37
		c0.896-0.513,1.318-1.207,1.258-2.071c-0.146-2.075-2.206-2.9-3.437-3.393c-0.433-0.173-0.971-0.389-0.943-0.51l0.045-0.188
		C6.751,4.133,6.877,3.609,6.9,3.033c0.055-1.395-1.245-2.622-2.481-2.958C4.237,0.025,4.057,0,3.882,0
		C2.83,0,2.22,0.862,2.099,1.664C1.992,2.369,2.234,3.304,3.256,3.666C3.229,3.747,3.153,3.895,3.095,4.007
		c-0.144,0.28-0.323,0.627-0.353,0.936C2.628,6.106,3.292,7.161,3.956,7.647C4.354,7.94,4.804,8.153,5.254,8.349
		C4.995,8.31,4.762,8.303,4.591,8.337L4.542,8.346c-1.307,0.253-2.788,0.54-3.822,1.501c-0.738,0.686-0.936,1.849-0.469,2.764
		c0.45,0.883,1.366,1.325,2.266,1.703c0.873,0.367,1.67,0.439,2.674,0.439C5.371,14.753,6.021,14.746,6.166,14.746z"/>
	<path d="M25.456,4.776c-3.296-3.844-8.908-0.847-9.704-0.391c-2.38-1.625-5.638-3.067-8.398-1.493
		c0.001,0.053,0.014,0.104,0.012,0.158C7.341,3.642,7.218,4.182,7.093,4.704c0.17,0.081,0.416,0.179,0.577,0.244
		C7.74,4.891,7.803,4.832,7.875,4.777c3.643-2.778,9.768,3.609,9.83,3.674c0.354,0.374,0.943,0.39,1.318,0.037
		c0.375-0.354,0.391-0.944,0.037-1.319c-0.083-0.088-0.7-0.733-1.655-1.529c1.495-0.685,4.771-1.82,6.634,0.352
		c1.764,2.058,2.549,4.373,2.273,6.694c-0.26,2.183-1.466,4.197-3.309,5.526c-0.189,0.137-0.321,0.339-0.368,0.568
		c-1.092,5.298-3.21,10.349-4.721,11.259c-0.067,0.04-0.153,0.084-0.227,0.092c-0.212-0.492,0.003-2.269,0.133-3.351
		c0.299-2.484,0.609-5.052-0.584-6.497c-0.478-0.581-1.166-0.918-1.987-0.976c-0.084-0.006-0.167-0.008-0.247-0.008
		c-2.884,0-3.586,3.736-4.155,6.755c-0.286,1.52-0.677,3.602-1.236,3.974c-0.027,0.019-0.06,0.041-0.171,0.017
		c-0.859-0.182-1.14-4.939-1.26-6.97c-0.202-3.415-0.367-5.559-1.192-6.56C6.79,16.276,6.499,15.818,6.2,15.21
		c-0.01,0-0.021,0-0.032,0l-0.384,0.003c-0.23,0.002-0.489,0.005-0.593,0.005c-0.376,0-0.721-0.018-1.057-0.048
		c0.473,1.15,1.018,2.052,1.413,2.531c0.48,0.583,0.646,3.415,0.769,5.483c0.259,4.405,0.485,8.209,2.736,8.686
		c0.576,0.123,1.125,0.022,1.593-0.29c1.213-0.809,1.594-2.835,2.036-5.182c0.568-3.021,1.089-5.323,2.436-5.23
		c0.405,0.029,0.577,0.177,0.681,0.303c0.684,0.828,0.388,3.289,0.169,5.086c-0.314,2.608-0.585,4.861,1.131,5.362
		C17.253,31.965,17.442,32,17.661,32c0.346,0,0.76-0.088,1.215-0.362c2.637-1.587,4.712-8.434,5.513-12.133
		c2.099-1.632,3.468-4.018,3.776-6.599C28.401,10.916,28.125,7.89,25.456,4.776z"/>
</g>
<g>
</g>
<g>
</g>
<g>
</g>
<g>
</g>
<g>
</g>
<g>
</g>
<g>
</g>
<g>
</g>
<g>
</g>
<g>
</g>
<g>
</g>
<g>
</g>
<g>
</g>
<g>
</g>
<g>
</g>
</svg>
