<?xml version="1.0" encoding="iso-8859-1"?>
<!-- Generator: Adobe Illustrator 16.0.0, SVG Export Plug-In . SVG Version: 6.00 Build 0)  -->
<!DOCTYPE svg PUBLIC "-//W3C//DTD SVG 1.1//EN" "http://www.w3.org/Graphics/SVG/1.1/DTD/svg11.dtd">
<svg version="1.1" id="Layer_1" xmlns="http://www.w3.org/2000/svg" xmlns:xlink="http://www.w3.org/1999/xlink" x="0px" y="0px"
	 width="25.088px" height="32px" viewBox="0 0 25.088 32" style="enable-background:new 0 0 25.088 32;" xml:space="preserve">
<g>
	<path d="M22.312,2.566c-3.294-3.844-8.907-0.845-9.703-0.391c-2.556-1.747-6.13-3.286-9.007-1.093
		c-2.067,1.575-3.257,3.607-3.539,6.04c-0.361,3.122,0.901,6.143,1.869,7.685c0.118,0.421,0.488,0.737,0.947,0.737h19.688
		c0.467,0,0.841-0.327,0.951-0.759c0.796-1.236,1.329-2.627,1.503-4.091C25.258,8.705,24.981,5.679,22.312,2.566z M1.917,7.337
		c0.222-1.91,1.168-3.515,2.817-4.77c3.638-2.773,9.766,3.609,9.827,3.674c0.356,0.375,0.947,0.39,1.32,0.036
		c0.374-0.354,0.39-0.944,0.036-1.318c-0.083-0.088-0.701-0.733-1.654-1.529c1.493-0.685,4.771-1.819,6.633,0.352
		c1.763,2.057,2.549,4.372,2.272,6.693c-0.13,1.092-0.522,2.128-1.089,3.07H3.351C2.614,12.251,1.631,9.806,1.917,7.337z"/>
	<path d="M21.08,16.74c-4.163,0-16.642,0-17.249,0c-0.719,0-1.282,0.72-1.001,1.519c0.183,0.498,0.423,2.858,0.545,4.926
		c0.26,4.405,0.484,8.209,2.737,8.687c0.573,0.122,1.126,0.021,1.593-0.29c1.212-0.809,1.594-2.835,2.035-5.182
		c0.568-3.02,1.092-5.319,2.436-5.229c0.406,0.029,0.577,0.177,0.681,0.303c0.684,0.828,0.387,3.289,0.17,5.085
		c-0.314,2.608-0.587,4.861,1.13,5.361C14.312,31.965,14.502,32,14.719,32c0.346,0,0.761-0.088,1.216-0.362
		c2.636-1.587,5.861-12.666,6.063-13.221C22.319,17.426,21.85,16.74,21.08,16.74z M19.693,18.781
		c-1.092,5.298-3.209,10.348-4.721,11.258c-0.066,0.04-0.153,0.084-0.226,0.092c-0.211-0.493,0.003-2.268,0.133-3.35
		c0.3-2.483,0.608-5.052-0.584-6.497c-0.479-0.58-1.167-0.917-1.988-0.976c-0.084-0.006-0.166-0.009-0.247-0.009
		c-2.883,0-3.586,3.736-4.153,6.755c-0.287,1.519-0.678,3.601-1.237,3.973C6.64,30.047,6.61,30.07,6.498,30.045
		c-0.859-0.183-1.14-4.939-1.26-6.97c-0.11-1.87-0.215-3.344-0.419-4.469h14.946C19.739,18.665,19.706,18.718,19.693,18.781z"/>
</g>
<g>
</g>
<g>
</g>
<g>
</g>
<g>
</g>
<g>
</g>
<g>
</g>
<g>
</g>
<g>
</g>
<g>
</g>
<g>
</g>
<g>
</g>
<g>
</g>
<g>
</g>
<g>
</g>
<g>
</g>
</svg>
