<?xml version="1.0" encoding="iso-8859-1"?>
<!-- Generator: Adobe Illustrator 16.0.0, SVG Export Plug-In . SVG Version: 6.00 Build 0)  -->
<!DOCTYPE svg PUBLIC "-//W3C//DTD SVG 1.1//EN" "http://www.w3.org/Graphics/SVG/1.1/DTD/svg11.dtd">
<svg version="1.1" id="Layer_1" xmlns="http://www.w3.org/2000/svg" xmlns:xlink="http://www.w3.org/1999/xlink" x="0px" y="0px"
	 width="31.858px" height="31.999px" viewBox="0 0 31.858 31.999" style="enable-background:new 0 0 31.858 31.999;"
	 xml:space="preserve">
<path style="fill:#070909;" d="M31.824,12.807C32.32,6.262,27.402,0.532,20.855,0.035C14.31-0.462,8.58,4.458,8.083,11.004
	c-0.157,2.072,0.231,4.062,1.038,5.831l-1.247,1.29l1.292,1.235L0,28.726l3.321,3.272l9.178-9.381l1.421,1.388l1.195-1.234
	c1.218,0.542,2.535,0.898,3.935,1.005C25.594,24.272,31.326,19.354,31.824,12.807z M19.341,19.948
	c-1.876-0.142-3.549-0.922-4.837-2.105l0.185,3.107l-0.185-3.107c-1.758-1.616-2.791-3.988-2.597-6.548
	c0.337-4.436,4.222-7.771,8.656-7.433c4.435,0.337,7.769,4.22,7.433,8.657C27.657,16.952,23.775,20.287,19.341,19.948z"/>
<path d="M24.214,7.04c-1.352-1.576-3.651-0.347-3.978-0.161c-1.048-0.716-2.514-1.347-3.693-0.448
	c-0.848,0.646-1.335,1.479-1.45,2.476c-0.175,1.501,0.571,2.96,0.959,3.431c0.197,0.239,0.266,1.4,0.315,2.249
	c0.106,1.806,0.199,3.365,1.122,3.561c0.235,0.051,0.461,0.009,0.652-0.118c0.498-0.332,0.654-1.162,0.835-2.125
	c0.233-1.238,0.446-2.182,0.998-2.145c0.167,0.012,0.237,0.072,0.281,0.125c0.279,0.339,0.157,1.348,0.068,2.084
	c-0.128,1.07-0.24,1.994,0.464,2.199c0.063,0.018,0.141,0.033,0.23,0.033c0.142,0,0.313-0.037,0.498-0.148
	c1.082-0.651,1.932-3.459,2.26-4.975c0.861-0.67,1.423-1.648,1.549-2.706C25.422,9.557,25.309,8.316,24.214,7.04z M24.566,10.282
	c-0.106,0.896-0.601,1.722-1.356,2.266c-0.077,0.057-0.132,0.14-0.15,0.233c-0.449,2.173-1.316,4.243-1.937,4.616
	c-0.027,0.017-0.063,0.035-0.093,0.038c-0.087-0.202,0.001-0.931,0.056-1.374c0.122-1.018,0.249-2.07-0.241-2.664
	c-0.195-0.237-0.478-0.375-0.815-0.4c-0.034-0.002-0.067-0.003-0.101-0.003c-1.182,0-1.47,1.532-1.704,2.771
	c-0.116,0.623-0.276,1.476-0.506,1.629c-0.012,0.008-0.023,0.016-0.069,0.006c-0.353-0.074-0.469-2.024-0.518-2.857
	c-0.083-1.4-0.15-2.279-0.489-2.689c-0.263-0.318-0.937-1.587-0.789-2.857c0.091-0.783,0.479-1.44,1.154-1.955
	C18.5,5.9,21.011,8.52,21.037,8.546c0.146,0.153,0.388,0.16,0.541,0.015c0.153-0.146,0.16-0.387,0.015-0.541
	c-0.034-0.037-0.287-0.301-0.678-0.627c0.611-0.281,1.956-0.747,2.72,0.144C24.357,8.381,24.679,9.33,24.566,10.282z"/>
<g>
</g>
<g>
</g>
<g>
</g>
<g>
</g>
<g>
</g>
<g>
</g>
<g>
</g>
<g>
</g>
<g>
</g>
<g>
</g>
<g>
</g>
<g>
</g>
<g>
</g>
<g>
</g>
<g>
</g>
</svg>
