<?xml version="1.0" standalone="no"?>
<!DOCTYPE svg PUBLIC "-//W3C//DTD SVG 20010904//EN"
 "http://www.w3.org/TR/2001/REC-SVG-20010904/DTD/svg10.dtd">
<svg version="1.0" xmlns="http://www.w3.org/2000/svg"
 width="16.000000pt" height="16.000000pt" viewBox="0 0 16.000000 16.000000"
 preserveAspectRatio="xMidYMid meet">
<metadata>
Created by potrace 1.11, written by Peter Selinger 2001-2013
</metadata>
<g transform="translate(0.000000,16.000000) scale(0.013333,-0.013333)"
fill="#000000" stroke="none">
<path d="M0 1170 c0 -16 11 -50 25 -76 14 -26 25 -53 25 -60 0 -8 9 -23 20
-34 11 -11 20 -24 20 -29 0 -5 16 -19 35 -32 41 -28 39 5 35 -434 l-2 -301 25
-19 c14 -10 24 -22 22 -25 -11 -17 19 -98 48 -128 l31 -32 123 0 c93 0 123 3
123 13 0 16 -79 171 -105 205 -19 24 -35 40 -43 44 -5 1 -12 13 -16 25 -7 21
-5 22 66 19 l73 -2 2 -50 c1 -27 0 -43 -3 -36 -3 6 -10 12 -15 12 -5 0 -3 -13
6 -30 8 -16 15 -38 15 -50 0 -11 7 -23 15 -26 8 -4 15 -15 15 -26 0 -11 17
-37 37 -59 l37 -39 183 0 183 0 -20 40 c-11 21 -20 44 -20 50 0 16 -53 80 -66
80 -7 0 -15 7 -18 16 -6 15 -8 15 -25 0 -17 -16 -21 -15 -64 6 -37 19 -47 30
-55 62 -6 22 -9 42 -7 45 2 4 32 8 66 9 35 2 67 6 71 8 4 3 8 34 8 68 0 79
-10 88 -87 85 l-58 -2 2 59 c1 32 7 60 13 62 5 2 10 9 10 15 1 15 75 97 88 97
5 0 15 13 22 30 7 16 18 35 26 41 12 10 14 -33 14 -283 l0 -295 40 -12 c28 -8
40 -17 40 -31 0 -27 38 -112 60 -132 15 -14 37 -18 100 -18 l80 0 0 43 c0 59
-42 142 -98 193 l-46 42 -4 96 c-3 53 -1 171 3 261 7 153 9 165 26 165 20 0
25 20 10 36 -10 9 -31 120 -31 162 0 36 18 26 47 -27 18 -31 39 -54 60 -64
l33 -15 0 118 0 117 -33 37 c-32 34 -36 36 -100 36 l-66 0 -3 -32 c-4 -41 -17
-41 -43 -1 l-20 32 -467 0 -468 1 0 -30z m623 -371 c14 -35 14 -43 3 -55 -23
-23 -40 11 -37 74 2 34 16 26 34 -19z m-143 -188 c23 -34 30 -56 30 -94 0 -49
0 -49 -29 -42 -16 3 -48 1 -70 -5 l-41 -11 0 -57 c-1 -31 -7 -70 -14 -87 -12
-28 -13 -25 -21 65 -9 101 -8 148 1 194 l6 28 12 -23 c15 -32 56 -38 56 -10 0
28 -31 104 -47 116 -7 6 -16 28 -19 50 l-5 40 56 -60 c31 -33 69 -80 85 -104z
m-206 -427 c9 -3 16 -13 16 -21 0 -8 9 -34 21 -59 11 -25 19 -50 17 -56 -6
-16 -38 20 -38 43 0 10 -6 19 -13 19 -17 0 -60 58 -52 70 7 11 26 13 49 4z
m771 -24 c6 -20 0 -40 -14 -40 -7 0 -31 43 -31 55 0 15 40 2 45 -15z m-485 -4
c0 -8 -4 -18 -10 -21 -5 -3 -10 3 -10 14 0 12 5 21 10 21 6 0 10 -6 10 -14z"/>
<path d="M420 525 c0 -8 5 -15 10 -15 6 0 10 7 10 15 0 8 -4 15 -10 15 -5 0
-10 -7 -10 -15z"/>
<path d="M1176 1185 c4 -8 10 -15 15 -15 5 0 9 7 9 15 0 8 -7 15 -15 15 -9 0
-12 -6 -9 -15z"/>
<path d="M0 984 c0 -61 4 -79 18 -90 31 -24 42 -17 42 26 0 36 -41 140 -55
140 -3 0 -5 -34 -5 -76z"/>
<path d="M1080 650 c0 -11 7 -20 15 -20 8 0 15 9 15 20 0 11 -7 20 -15 20 -8
0 -15 -9 -15 -20z"/>
<path d="M41 524 c0 -11 3 -14 6 -6 3 7 2 16 -1 19 -3 4 -6 -2 -5 -13z"/>
<path d="M1160 290 c0 -12 8 -35 17 -53 17 -31 18 -31 21 -8 2 13 -1 28 -7 34
-6 6 -11 19 -11 29 0 10 -4 18 -10 18 -5 0 -10 -9 -10 -20z"/>
<path d="M15 160 c-4 -6 -9 -44 -12 -85 l-6 -75 62 0 c33 0 61 3 60 8 0 4 -11
27 -24 52 -13 25 -31 60 -40 78 -16 33 -29 40 -40 22z"/>
<path d="M130 86 c0 -9 5 -16 10 -16 6 0 10 -16 10 -35 0 -31 3 -35 25 -35 14
0 25 5 25 10 0 6 -4 10 -9 10 -5 0 -16 16 -25 35 -19 39 -36 54 -36 31z"/>
</g>
</svg>
